<?xml version="1.0" encoding="UTF-8" standalone="no"?>
<!-- Created with Inkscape (http://www.inkscape.org/) -->

<svg
   xmlns:dc="http://purl.org/dc/elements/1.1/"
   xmlns:cc="http://creativecommons.org/ns#"
   xmlns:rdf="http://www.w3.org/1999/02/22-rdf-syntax-ns#"
   xmlns:svg="http://www.w3.org/2000/svg"
   xmlns="http://www.w3.org/2000/svg"
   xmlns:xlink="http://www.w3.org/1999/xlink"
   xmlns:sodipodi="http://sodipodi.sourceforge.net/DTD/sodipodi-0.dtd"
   xmlns:inkscape="http://www.inkscape.org/namespaces/inkscape"
   width="780"
   height="400"
   viewBox="0 0 780.00001 400.00001"
   id="svg2"
   version="1.1"
   inkscape:version="0.91 r13725"
   sodipodi:docname="keyboard_commands.svg">
  <defs
     id="defs4">
    <linearGradient
       id="9">
      <stop
         id="K" />
      <stop
         stop-opacity="0"
         id="L"
         offset="1" />
    </linearGradient>
    <linearGradient
       id="A">
      <stop
         stop-color="#323232"
         id="M" />
      <stop
         stop-color="#656565"
         offset="0.5"
         id="N" />
      <stop
         stop-color="#323232"
         id="O"
         offset="1" />
    </linearGradient>
    <linearGradient
       id="B">
      <stop
         stop-color="#939393"
         id="P" />
      <stop
         stop-color="#939393"
         offset="0.5"
         id="Q" />
      <stop
         stop-color="#fff"
         offset="0.5"
         id="R" />
      <stop
         stop-color="#fff"
         id="S"
         offset="1" />
    </linearGradient>
    <linearGradient
       id="C">
      <stop
         stop-color="#eee"
         id="T" />
      <stop
         stop-color="#e1e1e1"
         id="U"
         offset="1" />
    </linearGradient>
    <linearGradient
       id="D">
      <stop
         stop-opacity="0"
         stop-color="#323232"
         id="V" />
      <stop
         stop-color="#323232"
         offset="0.5"
         id="W" />
      <stop
         stop-opacity="0"
         stop-color="#323232"
         id="X"
         offset="1" />
    </linearGradient>
    <linearGradient
       id="E"
       x1="23.33"
       x2="105.06"
       gradientUnits="userSpaceOnUse"
       xlink:href="#D"
       gradientTransform="matrix(0.95108003,0,0,0.94241898,218.54066,596.88088)" />
    <radialGradient
       id="F"
       cx="64.419998"
       cy="55.209999"
       r="40.599998"
       gradientTransform="matrix(0.80029679,-0.50920574,0.72463224,1.1182255,188.24551,617.14196)"
       gradientUnits="userSpaceOnUse"
       xlink:href="#C" />
    <linearGradient
       id="G"
       x1="59.898998"
       x2="72.529999"
       gradientUnits="userSpaceOnUse"
       xlink:href="#B"
       gradientTransform="matrix(1.0295196,0,0,1.059845,211.63707,589.15659)" />
    <linearGradient
       id="H"
       y1="21.09"
       x2="0"
       y2="39.75"
       gradientUnits="userSpaceOnUse"
       xlink:href="#A"
       gradientTransform="matrix(0.95108003,0,0,0.94241898,218.54066,596.88088)" />
    <radialGradient
       id="I"
       cx="66.669998"
       cy="121.68"
       r="25.299"
       gradientTransform="matrix(1,0,0,0.0472973,0,115.92041)"
       gradientUnits="userSpaceOnUse"
       xlink:href="#9" />
    <filter
       height="4.8769999"
       y="-1.938"
       width="1.183"
       x="-0.092"
       id="J">
      <feGaussianBlur
         id="Y"
         stdDeviation="1.93279" />
    </filter>
  </defs>
  <sodipodi:namedview
     id="base"
     pagecolor="#ffffff"
     bordercolor="#666666"
     borderopacity="1.0"
     inkscape:pageopacity="0"
     inkscape:pageshadow="2"
     inkscape:zoom="1"
     inkscape:cx="339.58168"
     inkscape:cy="246.24109"
     inkscape:document-units="px"
     inkscape:current-layer="layer1"
     showgrid="false"
     units="px"
     showguides="true"
     inkscape:guide-bbox="true"
     inkscape:snap-bbox="true"
     inkscape:bbox-paths="true"
     inkscape:bbox-nodes="false"
     showborder="true"
     inkscape:window-width="1366"
     inkscape:window-height="705"
     inkscape:window-x="-8"
     inkscape:window-y="-8"
     inkscape:window-maximized="1">
    <sodipodi:guide
       position="387.89858,402.04072"
       orientation="1,0"
       id="guide4213" />
    <sodipodi:guide
       position="364,323.00001"
       orientation="0,1"
       id="guide5118" />
    <sodipodi:guide
       position="239.7092,286.37825"
       orientation="0,1"
       id="guide5124" />
    <sodipodi:guide
       position="34.648233,322.99998"
       orientation="1,0"
       id="guide5150" />
    <sodipodi:guide
       position="198.69701,246.78027"
       orientation="0,1"
       id="guide5152" />
    <sodipodi:guide
       position="178.19091,207.18229"
       orientation="0,1"
       id="guide5178" />
    <sodipodi:guide
       position="170.41274,323.00001"
       orientation="1,0"
       id="guide5204" />
    <sodipodi:guide
       position="253.14423,163.34167"
       orientation="0,1"
       id="guide5206" />
    <sodipodi:guide
       position="318.90516,125.86501"
       orientation="0,1"
       id="guide5232" />
    <sodipodi:guide
       position="573.74274,427.00001"
       orientation="1,0"
       id="guide5234" />
  </sodipodi:namedview>
  <metadata
     id="metadata7">
    <rdf:RDF>
      <cc:Work
         rdf:about="">
        <dc:format>image/svg+xml</dc:format>
        <dc:type
           rdf:resource="http://purl.org/dc/dcmitype/StillImage" />
        <dc:title></dc:title>
      </cc:Work>
    </rdf:RDF>
  </metadata>
  <g
     inkscape:label="Layer 1"
     inkscape:groupmode="layer"
     id="layer1"
     transform="translate(0,-652.36216)">
    <g
       id="g5345"
       transform="translate(-4,109)">
      <g
         transform="translate(-180.20963,-39)"
         id="g5070">
        <path
           style="opacity:0.33800001;stroke:url(#I);filter:url(#J)"
           inkscape:connector-curvature="0"
           id="1"
           d="m 91.964241,121.67532 a 25.298714,1.1965607 0 1 1 -50.597427,0 25.298714,1.1965607 0 1 1 50.597427,0 z"
           transform="matrix(0.95108003,0,0,0.94241898,216.42718,595.59212)" />
        <path
           style="fill:#bbbbbb"
           inkscape:connector-curvature="0"
           id="2"
           d="m 279.76644,600.03209 c -0.67922,0 -1.3503,0.0192 -2.02105,0.0589 -20.79161,1.23068 -37.211,21.24182 -37.211,45.61897 0.0418,9.6941 0.004,9.80305 0.0297,9.6598 0.003,-0.0179 0.002,0.0507 0,0.0883 -0.002,0.0377 0.002,0.0938 0,0.1767 -0.003,0.16581 0.004,0.47615 0,1.08968 -0.008,1.22704 -0.0211,3.66386 -0.0297,8.51122 0,24.36558 16.40368,44.37105 37.18128,45.61897 0.01,5.9e-4 0.0199,-5.9e-4 0.0297,0 0.67242,0.0474 1.35728,0.0589 2.02105,0.0589 0.66377,0 1.34863,-0.0115 2.02104,-0.0589 0.01,-5.9e-4 0.0199,5.9e-4 0.0297,0 20.7776,-1.24792 37.18129,-21.25339 37.18129,-45.61897 0.0437,-4.84785 0.0837,-7.27395 0.0891,-8.51122 0.003,-0.61864 0.004,-0.94094 0,-1.11913 -0.002,-0.0891 -0.0231,-0.14106 -0.0297,-0.20615 -0.004,-0.0388 -0.009,-0.11071 -0.0297,-0.17671 -1.8e-4,-0.004 1.8e-4,-0.0253 0,-0.0294 -0.007,-0.14658 0.006,-0.44127 0,-1.03077 -0.012,-1.21268 -0.0384,-3.63631 -0.0297,-8.45232 -9e-5,-24.37715 -16.41949,-44.38829 -37.2111,-45.61897 -0.67075,-0.0397 -1.34182,-0.0589 -2.02104,-0.0589 z" />
        <path
           style="fill:url(#F)"
           inkscape:connector-curvature="0"
           d="m 279.7714,600.68001 c -0.6658,0 -1.33381,0.02 -1.99133,0.0589 -20.38314,1.2065 -36.58686,20.88657 -36.58686,44.97105 0.0837,19.38744 0.0346,0.13818 0,19.52575 0,24.08448 16.20372,43.76455 36.58686,44.97105 0.65752,0.0474 1.32553,0.0589 1.99133,0.0589 0.6658,0 1.3338,-0.0115 1.99132,-0.0589 20.38315,-1.2065 36.58687,-20.88657 36.58687,-44.97105 0.17471,-19.39056 -0.0347,-0.25776 0,-19.52575 0,-24.08448 -16.20372,-43.76455 -36.58687,-44.97105 -0.65752,-0.0389 -1.32552,-0.0589 -1.99132,-0.0589 z"
           id="3" />
        <path
           style="opacity:0.21799999;fill:url(#G)"
           inkscape:connector-curvature="0"
           id="4"
           d="m 286.30856,629.52154 a 6.5019161,21.598407 0 0 1 -13.00383,0 6.5019161,21.598407 0 1 1 13.00383,0 z" />
        <path
           style="opacity:0.41800005;fill:none;stroke:url(#E);stroke-width:0.94673961"
           inkscape:connector-curvature="0"
           d="m 241.20448,646.21122 c 25.7672,12.71985 51.34746,11.73221 76.78453,0.24544"
           id="5" />
        <path
           style="opacity:0.203;fill:#bbbbbb;stroke:#000000;stroke-width:0.94389933;stroke-linecap:round;stroke-linejoin:round"
           inkscape:connector-curvature="0"
           d="m 279.80664,601.10967 0,54.18531"
           id="6" />
        <path
           style="fill:#bbbbbb"
           inkscape:connector-curvature="0"
           id="7"
           d="m 279.88532,615.90596 c -2.21034,0 -3.98265,1.89144 -3.98265,4.24089 l 0,10.80837 c 0,2.34945 1.77231,4.24088 3.98265,4.24088 2.21035,0 4.01237,-1.89143 4.01237,-4.24088 l 0,-10.80837 c 0,-2.34945 -1.80202,-4.24089 -4.01237,-4.24089 z" />
        <path
           style="fill:url(#H)"
           inkscape:connector-curvature="0"
           id="8"
           d="m 279.88532,616.76003 c -1.72222,0 -3.12073,1.45602 -3.12073,3.38682 l 0,10.80837 c 0,1.9308 1.39851,3.38681 3.12073,3.38681 1.72222,0 3.15045,-1.46303 3.15045,-3.38681 l 0,-10.80837 c 0,-1.92378 -1.42823,-3.38682 -3.15045,-3.38682 z" />
      </g>
      <g
         transform="translate(-12,-6)"
         id="g5098">
        <path
           inkscape:connector-curvature="0"
           id="path5021"
           d="m 410.69822,650.7146 53.79062,-43.43655 66.67006,-42.93148 11.11167,-5.80839 24.24368,10.85915 22.72843,12.12182 2.27285,1.51524 -23.99114,36.61802 -31.81981,48.48732 -35.10278,50.76017 -45.96194,-32.07235 -32.32488,-25.25381 z"
           style="fill:#e0e0e0;fill-opacity:1;fill-rule:evenodd;stroke:none;stroke-width:1.05625665px;stroke-linecap:butt;stroke-linejoin:miter;stroke-opacity:1" />
        <g
           id="g6678"
           transform="matrix(0.36396541,0,0,0.39633153,179.15764,148.31238)">
          <path
             inkscape:connector-curvature="0"
             id="path5217"
             style="fill:#5f4343"
             d="m 1000.5,1036.7 c -91.35,35.3 -287.69,165.5 -363.03,228.2 -1.14,1.2 -2.28,2.3 -2.28,3.5 1.14,2.3 1.12,6.8 1.12,6.8 0,0 2.28,2.3 2.28,2.3 57.08,50.2 179.22,126.7 242,166.7 2.29,1.1 5.74,3.4 9.16,-2.3 110.75,-148.4 245.45,-343.6 245.45,-343.6 0,0 1.1,-1.2 -1.2,-2.3 -55.9,-32 -129,-59.3 -129,-59.3 l -4.5,0 z m 2.2,1 c 0.8,0 1.3,0.5 1.3,0.5 0,0 65.3,26.1 128.1,58.1 2.2,1.2 1.1,2.3 1.1,2.3 0,0 -240.03,334.2 -243.45,337.6 -3.42,4.6 -4.58,2.3 -5.72,2.3 -71.91,-44.6 -243.15,-166.2 -245.44,-169.6 -1.14,-1.1 0,-3.4 0,-3.4 93.32,-67.9 237.28,-171.6 362.01,-227.3 0.8,-0.4 1.5,-0.5 2.1,-0.5 z" />
          <path
             inkscape:connector-curvature="0"
             id="path5223"
             style="fill:#5f4343"
             d="m 726.5,1255.8 c -2.28,3.4 -12.56,9.2 -12.56,9.2 0,0 -1.14,2.2 -3.42,1.1 -2.28,-1.1 -17.12,-12.6 -17.12,-12.6 l -3.43,14.9 20.55,16 c 0,0 2.28,0 4.57,-1.2 3.42,-2.3 20.54,-14.8 20.54,-14.8 0,0 2.29,-1.2 0,-3.4 -2.28,-3.5 -6.85,-11.5 -7.99,-11.5 -1.14,0 2.29,-1.1 -1.14,2.3" />
          <path
             inkscape:connector-curvature="0"
             id="path5225"
             style="fill:#5f4343"
             d="m 736.77,1221.6 -3.42,16 19.41,13.7 c 0,0 2.28,1.1 4.56,0 1.14,-1.2 18.27,-13.7 18.27,-13.7 1.14,-1.2 0,-2.3 0,-3.5 -1.14,-1.1 -5.71,-10.2 -6.85,-11.4 0,1.2 -12.56,12.6 -15.98,11.4 -3.43,-2.3 -15.99,-12.5 -15.99,-12.5" />
          <path
             inkscape:connector-curvature="0"
             id="path5227"
             style="fill:#5f4343"
             d="m 760.75,1206.7 c 0,0 -3.43,9.2 -3.43,9.2 l 11.42,6.8 c 0,0 6.85,12.6 6.85,11.4 -1.14,-1.1 1.14,2.3 3.42,1.2 2.28,-1.2 17.12,-12.6 18.27,-14.9 1.14,-1.1 -5.71,-12.5 -6.85,-13.7 1.14,2.3 -10.28,12.6 -13.7,11.4 -3.43,-2.2 -15.98,-11.4 -15.98,-11.4" />
          <path
             inkscape:connector-curvature="0"
             id="path5229"
             style="fill:#5f4343"
             d="m 782.44,1191.9 c 0,0 -2.29,8 -2.29,8 l 10.28,6.8 6.85,12.6 c 0,0 1.14,1.1 3.42,-1.2 2.28,-1.1 15.98,-11.4 15.98,-11.4 1.14,0 1.14,-2.2 0,-3.4 0,-2.3 -3.42,-8 -4.56,-10.3 1.14,2.3 -11.42,10.3 -13.7,9.2 -1.14,-1.2 -15.98,-10.3 -15.98,-10.3" />
          <path
             inkscape:connector-curvature="0"
             id="path5231"
             style="fill:#5f4343"
             d="m 802.98,1177.1 -2.28,7.9 c 0,0 11.42,8 11.42,8 l 4.56,10.3 c 0,0 2.28,1.2 4.57,0 1.14,-1.1 13.7,-9.1 14.84,-11.4 1.14,-1.1 -3.43,-10.3 -4.57,-13.7 0,2.3 -10.27,11.4 -13.7,9.1 -3.42,-2.3 -14.84,-10.2 -14.84,-10.2" />
          <path
             inkscape:connector-curvature="0"
             id="path5233"
             style="fill:#5f4343"
             d="m 833.8,1156.5 -4.56,13.7 18.26,10.3 c 0,0 3.43,1.1 5.71,0 1.14,-1.2 11.42,-9.2 11.42,-9.2 l 0,-2.2 c 1.14,1.1 1.14,0 2.28,0 1.14,0 13.7,-9.2 13.7,-9.2 l 0,-2.3 c 0,1.2 1.14,1.2 2.28,0 l 11.42,-7.9 c 0,0 1.14,-1.2 0,-2.3 2.28,1.1 2.28,1.1 2.28,0 1.14,0 11.41,-8 12.55,-8 l 0,-3.4 c -1.14,0 -3.42,-6.9 -4.56,-9.2 1.14,2.3 -5.71,8 -7.99,5.7 -3.43,-1.1 -14.84,-8 -14.84,-8 l -1.14,5.8 10.27,5.7 c 0,0 1.14,2.2 0,2.2 -1.14,1.2 -5.71,6.9 -9.13,5.8 -2.28,-1.2 -14.84,-9.2 -14.84,-9.2 l -1.14,5.7 10.27,5.7 c 0,0 1.14,2.3 0,3.5 -1.14,1.1 -6.85,4.5 -6.85,4.5 0,0 -2.28,1.2 -4.56,0 -1.15,-1.1 -13.7,-8 -13.7,-9.1 0,-1.1 -2.29,6.8 -2.29,6.8 l 11.42,5.7 c 0,0 1.14,1.2 0,2.3 -1.14,1.2 -7.99,5.7 -7.99,5.7 0,0 -2.28,1.2 -4.57,0 -2.28,-2.2 -13.7,-9.1 -13.7,-9.1" />
          <path
             inkscape:connector-curvature="0"
             id="path5235"
             style="fill:#5f4343"
             d="m 904.58,1109.7 -4.57,11.4 c 0,0 17.13,8 18.27,9.2 l 3.42,0 c 1.14,-1.2 7.99,-5.8 7.99,-5.8 l 0,-2.2 1.14,0 10.28,-6.9 0,-1.1 2.28,0 c 0,-1.2 9.13,-6.9 9.13,-6.9 l 0,-1.1 c -1.14,-1.2 1.14,1.1 1.14,0 1.15,0 8,-5.7 9.14,-5.7 0,-1.2 -2.29,-10.3 -2.29,-10.3 0,-1.1 -4.56,3.4 -4.56,3.4 l -3.43,0 c -2.28,-1.1 -11.41,-6.8 -11.41,-6.8 l -2.29,3.4 11.42,5.7 c 0,0 1.14,1.1 0,2.3 -1.14,1.1 -4.57,3.4 -4.57,3.4 l -3.42,0 c -1.14,-1.1 -12.56,-8 -12.56,-8 0,0 -2.28,3.4 -2.28,3.4 l 11.41,6.9 c 0,0 1.15,1.1 0,2.3 -1.14,1.1 -4.56,3.4 -4.56,3.4 0,0 -1.14,1.1 -3.43,0 -1.14,-1.1 -13.69,-8 -13.69,-8 l -1.15,4.6 10.28,4.5 c 0,0 2.28,1.2 0,2.3 -1.14,2.3 -4.57,4.6 -4.57,4.6 0,0 -1.14,1.1 -3.42,0 -1.14,-1.1 -13.7,-8 -13.7,-8" />
          <path
             inkscape:connector-curvature="0"
             id="path5237"
             style="fill:#5f4343"
             d="m 954.81,1077.7 c 0,0 -3.43,6.9 -3.43,6.9 l 9.13,4.6 0,1.1 1.15,2.3 c 0,0 5.7,2.3 4.56,2.3 0,-1.2 2.28,1.1 4.57,0 1.14,-1.2 4.56,-4.6 4.56,-4.6 l 0,-1.1 2.29,0 c 1.14,0 6.85,-4.6 6.85,-4.6 l 0,-2.3 c 1.14,1.1 2.28,1.1 2.28,0 l 5.71,-4.6 0,-9.1 -3.43,3.4 -3.42,0 c -1.14,-1.1 -11.42,-6.8 -11.42,-6.8 l -1.14,3.4 9.13,4.6 c 0,0 1.14,1.1 0,2.3 l -3.42,2.2 -2.29,0 c -2.28,-1.1 -11.41,-6.8 -11.41,-6.8 0,0 -2.28,3.4 -2.28,3.4 l 10.27,4.6 c 0,0 2.28,1.1 1.14,2.3 -1.14,1.1 -3.42,2.2 -3.42,2.2 0,0 -2.29,1.2 -3.43,0 -2.28,0 -12.55,-5.7 -12.55,-5.7" />
          <path
             inkscape:connector-curvature="0"
             id="path5241"
             style="fill:#5f4343"
             d="m 989.06,1102.8 c 0,1.2 -12.56,12.6 -12.56,12.6 0,0 -2.3,1.1 -3.44,0 -2.28,-2.3 -13.68,-8 -13.68,-8 0,0 -2.29,4.6 -2.29,4.6 l 11.41,5.7 c 0,0 1.14,1.1 0,2.3 0,1.1 -3.41,3.4 -3.41,3.4 0,0 -1.17,1.1 -4.59,0 -2.28,-1.1 -13.69,-6.8 -13.69,-6.8 l -1.12,3.4 11.4,5.7 c 0,0 1.13,1.1 1.13,3.4 -1.14,1.2 -5.69,3.4 -5.69,3.4 0,0 0,2.3 -2.28,0 -2.28,-1.1 -14.84,-8 -14.84,-8 0,0 -2.29,4.6 -2.29,4.6 l 11.41,6.9 c 0,0 2.3,1.1 1.16,2.2 -2.29,2.3 -4.6,4.6 -4.6,4.6 0,0 -1.12,1.2 -3.4,0 -3.43,-1.1 -14.85,-8 -14.85,-8 0,0 -2.28,4.6 -2.28,4.6 l 12.56,5.7 c 0,0 1.15,2.3 0,3.4 -1.14,1.2 -5.71,4.6 -5.71,4.6 0,0 -2.27,1.1 -3.41,0 -1.14,-1.1 -14.84,-9.2 -14.84,-9.2 0,0 -2.28,5.8 -2.28,5.8 -0.01,0 12.53,6.8 12.53,6.8 0,0 1.14,1.1 0,2.3 -1.15,1.1 -4.57,4.5 -4.57,4.5 0,0 -2.26,2.3 -5.68,0 -4.57,-1.1 -14.85,-7.9 -14.85,-7.9 l -2.28,5.7 12.56,6.8 c 0,0 1.15,2.3 0,3.4 -1.14,1.2 -4.59,4.6 -4.59,4.6 0,0 -2.26,2.3 -5.69,0 -3.42,-1.1 -16,-9.1 -16,-9.1 l -1.12,6.8 11.4,6.9 c 0,0 2.29,1.1 0,3.4 -1.14,1.1 -5.71,4.6 -5.71,4.6 0,0 -3.42,2.3 -6.85,0 -3.42,-1.2 -13.69,-9.2 -13.69,-9.2 l -2.28,6.9 11.41,8 c 0,0 2.3,1.1 1.15,2.3 -1.14,2.3 -8,6.8 -8,6.8 0.01,0 -2.29,2.3 -5.71,0 -3.43,-2.3 -14.85,-9.1 -14.85,-9.1 0,0 -2.28,6.8 -2.28,6.8 l 12.56,8 c 0,0 1.15,1.2 0,3.4 -2.28,1.2 -7.96,6.9 -7.96,6.9 0,0 -2.3,2.3 -5.72,0 -2.29,-1.2 -15.97,-10.3 -15.97,-10.3 l -2.31,6.9 c -0.01,0 11.43,7.9 11.43,7.9 0,0 2.27,2.3 1.13,3.5 -2.29,2.3 -9.13,8 -9.13,8 0,0 -3.42,2.3 -4.56,0 -2.28,-1.2 -18.28,-11.5 -18.28,-11.5 0,0 -2.28,8 -2.28,8 l 12.56,8 c 0,0 2.28,2.3 0,4.6 -2.28,2.3 -10.28,9.1 -10.28,9.1 0,0 -3.41,1.2 -5.69,0 -2.28,-2.3 -16,-12.5 -16,-12.5 l -3.4,10.2 12.56,8 c 0,0 2.27,2.3 -1.16,4.6 -2.28,2.3 -9.12,8 -9.12,8 0,0 -3.42,2.3 -6.85,1.1 -2.28,-2.2 -16,-13.7 -16,-13.7 l -3.4,11.5 10.25,8 c 0,0 4.58,2.2 1.15,5.6 -3.42,3.5 -12.56,9.2 -12.56,9.2 0,0 -2.28,2.3 -6.84,-1.2 -4.57,-3.4 -14.85,-12.5 -14.85,-12.5 l -3.4,14.8 c 0,0 -1.16,1.2 1.12,2.3 1.14,1.1 20.56,16 20.56,16 0,0 3.41,1.1 5.69,-1.1 -1.14,3.4 0.02,3.4 1.16,4.5 1.14,1.2 21.69,17.1 21.69,17.1 0,0 3.42,0 4.56,-2.2 2.28,-1.2 -1.16,3.4 1.12,5.7 3.43,2.3 22.85,17.1 22.85,17.1 0,0 2.27,2.3 6.84,-3.4 -2.28,5.7 0,6.8 2.28,9.1 2.28,1.1 21.69,16 21.69,16 0,0 4.59,2.3 9.16,-4.6 -4.57,9.2 -1.15,9.1 0,10.3 1.14,0 22.82,16 23.96,16 0,1.1 2.28,2.3 4.57,0 2.28,-2.3 29.68,-33.2 29.68,-33.2 0,0 -0.01,-3.4 -1.15,-5.6 2.28,1.1 3.42,1.1 4.56,0 1.14,-2.3 14.84,-19.4 14.84,-19.4 0,0 1.15,-3.5 0,-4.6 2.29,0 3.44,2.3 5.72,-1.2 2.29,-3.4 21.69,-26.2 21.69,-26.2 0,0 1.14,-3.4 0,-4.6 2.28,1.2 3.42,-1.1 4.56,-1.1 0,-1.2 74.19,-93.6 74.19,-93.6 0,0 1.1,-1.2 0,-3.5 1.1,1.2 2.3,0.1 3.4,-1.1 1.2,-1.1 10.3,-13.7 10.3,-13.7 0,0 1.1,-1.1 1.1,-2.3 1.2,0 1.2,0 2.3,-1.1 1.2,-1.2 5.7,-6.9 5.7,-6.9 0,0 1.2,-1.1 0,-3.4 2.3,0 2.3,0 3.4,-1.1 1.2,-1.2 4.6,-5.7 4.6,-5.7 0,0 2.3,-1.2 0,-3.5 2.3,1.2 3.5,-1.1 4.6,-2.3 0,0 6.8,-9.1 6.8,-9.1 0,0 1.2,-1.1 1.2,-4.5 -1.2,-2.3 -1.2,-5.8 -1.2,-8 -1.1,3.4 -6.8,10.2 -6.8,10.2 0,0 0,1.2 -3.4,0 -2.3,0 -13.7,-3.4 -14.9,-4.5 0,-1.2 4.6,-5.7 4.6,-5.7 l 0,-9.2 c -1.2,2.3 -18.3,20.6 -18.3,20.6 0,0 -1.1,1.1 -4.5,0 -2.3,-1.1 -13.7,-3.4 -13.7,-3.4 0,0 -1.2,-1.2 0,-1.2 0,-1.1 16,-17.1 16,-17.1 0,0 -1.2,-5.7 -1.2,-8 0,2.3 -14.8,14.8 -14.8,14.8 0,0 -1.2,2.3 -3.4,1.2 -2.3,-1.2 -12.61,-4.6 -12.61,-4.6 0,0 -1.14,-1.1 0,-2.3 1.14,-2.3 12.61,-11.4 12.61,-11.4 0,0 -1.2,-5.7 -2.3,-6.8 0,2.3 -6.9,7.9 -6.9,7.9 l -3.41,0 c -2.29,-1.1 -12.57,-5.6 -12.57,-5.6 0,0 -2.28,-1.2 0,-2.3 1.15,-1.2 4.57,-3.5 4.57,-3.5 0,0 -1.13,-5.7 -1.13,-8 z m -8.84,15.5 c 1,0 1.97,0.5 1.97,0.5 0,0 8,3.4 10.28,5.7 2.28,1.2 2.28,2.3 2.28,2.3 0,0 -2.28,2.3 -4.56,3.4 -1.14,1.2 -3.41,0 -3.41,0 0,0 -10.28,-4.5 -12.56,-5.7 -1.14,0 0,-2.3 0,-2.3 0,0 3.42,-1.1 4.56,-3.4 0.29,-0.2 0.63,-0.4 1,-0.5 l 0.44,0 z m -10.56,9.2 0.43,0 c 0.95,0 1.85,0.5 1.85,0.5 0,0 10.26,4.5 11.4,5.7 1.15,1.1 1.16,2.3 1.16,2.3 0,0 -3.45,2.2 -4.59,4.5 -1.15,1.2 -3.41,0 -3.41,0 0,0 -11.42,-5.7 -12.56,-5.7 -2.29,-1.1 0,-3.4 0,-3.4 0,0 2.28,-2.3 4.56,-3.4 0.32,-0.4 0.73,-0.5 1.16,-0.5 z m -11.41,9.1 0.44,0 c 0.95,0 1.81,0.5 1.81,0.5 0,0 10.3,4.6 11.44,5.7 2.28,1.2 1.12,2.3 1.12,2.3 0,0 -3.42,3.4 -4.56,4.6 -1.14,2.2 -3.41,0 -3.41,0 0,0 -12.57,-5.8 -13.71,-5.8 -1.15,-1.1 0,-2.2 0,-2.2 -0.01,0 3.43,-3.5 5.71,-4.6 0.32,-0.3 0.73,-0.5 1.16,-0.5 z m 34.97,0 0.56,0 c 1.23,0 2.13,0.5 2.13,0.5 0,0 7.99,3.4 11.39,4.6 3.4,1.1 1.2,3.4 1.2,3.4 0,0 -2.3,2.3 -4.6,3.4 -1.1,1.2 -3.4,0 -3.4,0 0,0 -9.15,-3.4 -11.44,-4.6 -3.42,-1.1 -1.15,-3.4 -1.15,-3.4 0,0 2.29,-1.1 3.43,-3.4 0.65,-0.3 1.29,-0.5 1.88,-0.5 z m -8.72,9.6 c 0,0 10.25,3.5 12.53,5.7 2.28,1.2 1.16,2.3 1.16,2.3 0,0 -1.16,2.3 -3.44,3.5 -2.28,2.2 -4.56,1.1 -4.56,1.1 0,0 -11.41,-4.6 -13.69,-5.7 -2.28,-1.1 0,-2.3 0,-2.3 0,0 2.28,-2.3 4.56,-3.4 1.14,-1.2 3.44,-1.2 3.44,-1.2 z m -38.81,0.7 0.43,0 c 0.95,0 1.85,0.5 1.85,0.5 0,0 10.25,4.6 12.53,5.7 2.28,1.1 1.16,2.3 1.16,2.3 0,0 -3.42,4.5 -4.57,5.7 -2.28,1.1 -4.56,0 -4.56,0 0,0 -11.43,-5.7 -13.72,-6.9 -1.14,0 0,-2.3 0,-2.3 0,0 4.58,-3.4 5.72,-4.5 0.32,-0.3 0.73,-0.5 1.16,-0.5 z m 97.21,4.5 0.6,0 c 1.3,0.1 2.6,0.5 2.6,0.5 0,0 10.3,3.5 12.6,3.5 1.1,0 1.1,2.3 1.1,2.3 0,0 -1.1,2.2 -3.4,4.5 -1.1,1.2 -3.4,0 -3.4,0 0,0 -10.3,-3.4 -13.7,-4.5 -2.3,0 -1.2,-2.3 -1.2,-2.3 0,0 2.3,-1.2 3.5,-3.5 0.3,-0.3 0.8,-0.4 1.3,-0.5 z m -31.9,1.4 c 0.6,0 0.9,0.3 0.9,0.3 0,0 10.3,3.4 12.5,4.6 2.3,0 2.3,2.2 2.3,2.2 0,0 -2.3,2.3 -4.5,3.4 -2.3,2.3 -4.6,0 -4.6,0 0,0 -11.4,-3.4 -12.6,-3.4 -2.3,-1.1 -1.1,-2.2 -1.1,-2.2 0,0 2.3,-2.3 4.6,-3.5 1.1,-1.1 2,-1.4 2.5,-1.4 z m -40.06,3.8 c 1.04,0 2.12,1.1 2.12,1.1 0,0 11.44,4.5 13.72,4.5 2.28,1.2 0,3.4 0,3.4 0,0 -2.31,3.5 -4.59,4.6 -1.14,1.2 -3.41,0 -3.41,0 0,0 -11.4,-4.6 -13.69,-5.7 -2.28,-1.1 0,-2.3 0,-2.3 0,0 2.28,-3.4 4.57,-4.5 0.35,-0.8 0.8,-1 1.28,-1.1 z m -38.16,0.5 c 0.98,0 1.47,0.6 1.47,0.6 0,0 11.44,4.5 13.72,5.6 2.28,1.2 1.12,3.5 1.12,3.5 0,0 -3.4,3.4 -5.68,4.5 -1.15,2.3 -4.6,0 -4.6,0 0,0 -11.4,-4.5 -13.69,-5.7 -2.28,-1.1 0,-3.4 0,-3.4 0.01,0 3.44,-2.3 5.72,-4.5 0.57,-0.3 1.08,-0.5 1.5,-0.5 0.16,-0.1 0.3,-0.1 0.44,-0.1 z m 102.22,4.6 c 1,0 2,0.5 2,0.5 0,0 10.3,2.3 12.6,3.4 2.2,1.2 1.1,3.5 1.1,3.5 0,0 -1.2,1.1 -2.3,3.4 -1.1,1.1 -4.6,1.1 -4.6,1.1 0,0 -11.4,-4.5 -13.6,-4.5 -2.3,-1.2 0,-2.3 0,-2.3 0,0 2.2,-3.4 3.4,-4.6 0.2,-0.3 0.6,-0.4 1,-0.5 l 0.4,0 z m -35.16,1.1 0.46,0 c 0.9,0.1 1.3,0.5 1.3,0.5 0,0 9.1,2.3 12.6,3.5 3.4,1.1 2.2,3.4 2.2,3.4 0,0 -2.2,1.1 -4.5,3.4 -1.2,2.3 -4.6,1.2 -4.6,1.2 0,0 -10.27,-3.5 -12.55,-3.5 -3.42,-1.1 0,-3.4 0,-3.4 0,0 1.15,-2.3 3.44,-4.6 0.64,-0.3 1.19,-0.4 1.65,-0.5 z m -39.62,4.8 c 0.85,0 1.44,0.3 1.44,0.3 0,0 10.28,4.6 12.56,5.7 3.42,1.2 1.12,3.5 1.12,3.5 0,0 -2.28,2.2 -4.56,4.5 -2.28,1.2 -4.56,0 -4.56,0 0,0 -12.55,-5.7 -13.69,-5.7 -2.28,-1.1 0,-3.4 0,-3.4 0,0 2.28,-1.2 4.56,-3.4 1.15,-1.2 2.27,-1.5 3.13,-1.5 z m -41.19,1 0.56,0 c 1.23,0 2.1,0.5 2.1,0.5 0,0 11.42,5.7 12.56,6.8 2.28,1.1 1.16,3.4 1.16,3.4 0,0 -4.58,3.4 -5.72,5.7 -2.29,1.2 -4.57,0 -4.57,0 0.01,0 -11.4,-5.7 -13.68,-7.9 -2.29,-1.2 0,-2.3 0,-2.3 0,0 4.54,-3.5 5.68,-5.7 0.65,-0.4 1.31,-0.5 1.91,-0.5 z m 106.97,3.6 c 1,0 1.9,0.3 1.9,0.3 0,0 10.2,2.3 12.5,3.4 3.4,1.1 2.3,3.4 2.3,3.4 0,0 -6.9,6.9 -9.1,9.2 -2.3,3.4 -4.6,1.1 -4.6,1.1 0,0 -10.3,-3.4 -13.7,-4.6 -2.3,0 -1.1,-2.2 -1.1,-2.2 0,0 6.8,-6.9 9.1,-9.2 0.6,-1.1 1.7,-1.4 2.7,-1.4 z m -36.66,1.1 c 0.57,0 0.85,0.3 0.85,0.3 0,0 12.61,4.6 13.71,5.7 2.3,0 1.1,2.3 1.1,2.3 0,0 -2.2,3.4 -4.5,4.6 -1.17,2.3 -4.59,0 -4.59,0 0,0 -10.3,-3.4 -13.72,-3.4 -2.29,-1.2 0,-3.5 0,-3.5 0,0 2.31,-2.2 4.59,-4.5 1.14,-1.2 1.99,-1.5 2.56,-1.5 z m -43.43,6.7 0.56,0 c 1.28,0 2.62,0.5 2.62,0.5 0,0 11.41,4.5 13.69,5.7 2.28,1.1 0,3.4 0,3.4 0,0 -3.42,3.4 -4.56,5.7 -2.28,1.2 -4.56,0 -4.56,0 0,0 -12.56,-5.7 -14.85,-6.8 -2.28,-1.2 0,-3.5 0,-3.5 0,0 3.44,-2.2 5.72,-4.5 0.32,-0.4 0.82,-0.5 1.38,-0.5 z m -41.53,0.6 c 1.41,-0.1 2.5,1 2.5,1 -0.01,0 11.4,5.7 13.68,6.9 2.29,1.1 0,3.4 0,3.4 0,0 -2.29,3.4 -5.72,5.7 -2.28,2.3 -5.68,0 -5.68,0 0,0 -10.28,-5.7 -12.57,-6.8 -3.42,-2.3 -1.15,-3.5 -1.15,-3.5 0,0 3.42,-3.4 6.84,-5.7 0.71,-0.7 1.45,-1 2.1,-1 z m 72.18,5.7 c 1.76,-0.1 3.35,1 3.35,1 0,0 10.28,2.3 12.56,3.5 2.28,2.2 1.15,4.5 1.15,4.5 0.01,0 -2.27,2.3 -4.56,4.6 -2.28,1.1 -5.72,0 -5.72,0 0,0 -10.28,-3.4 -12.56,-4.6 -3.42,-1.1 -1.12,-3.4 -1.12,-3.4 0,0 3.42,-2.3 4.56,-4.6 0.71,-0.7 1.55,-1 2.34,-1 z m 34.24,2.2 c 1.1,0 14.8,2.3 15.9,8 2.3,6.8 -60.47,82.1 -71.89,87.8 -3.42,2.3 -5.72,0 -5.72,0 0,0 -11.42,-4.5 -14.84,-6.8 -4.57,-1.1 -1.13,-4.6 -1.13,-4.6 0,0 71.88,-79.9 73.08,-81 1.1,-1.1 2.3,-3.4 4.6,-3.4 z m -79.24,4 0.56,0 c 1.23,0.1 2.13,0.5 2.13,0.5 0,0 11.42,4.6 14.84,5.8 2.29,2.2 1.16,3.4 1.16,3.4 0,0 -4.56,4.5 -6.84,6.8 -1.15,1.2 -4.6,0 -4.6,0 0,0 -13.67,-6.8 -14.81,-6.8 -2.28,-1.2 0,-3.4 0,-3.4 0,0 3.4,-3.5 5.69,-5.8 0.64,-0.3 1.28,-0.4 1.87,-0.5 z m -43.68,1.8 c 1.38,-0.1 3,1 3,1 0,0 10.27,4.6 12.56,6.9 3.42,1.1 2.28,3.4 2.28,3.4 0,0 -4.56,4.6 -6.84,6.8 -2.29,2.3 -5.72,0 -5.72,0 0,0 -11.42,-6.8 -14.85,-8 -2.28,-1.1 0,-3.4 0,-3.4 0,0 5.72,-3.4 8,-5.7 0.36,-0.7 0.94,-1 1.57,-1 z m 75.84,4.6 c 1.42,-0.1 2.5,1 2.5,1 0,0 11.42,3.4 14.84,4.5 2.29,1.2 1.13,3.5 1.13,3.5 0,0 -4.55,4.6 -5.69,5.7 -2.28,1.1 -5.72,0 -5.72,0 0,0 -10.26,-3.4 -13.69,-4.6 -3.42,-1.1 -1.15,-3.4 -1.15,-3.4 0,0 4.57,-3.4 5.72,-5.7 0.71,-0.7 1.41,-1 2.06,-1 z m -46.78,6.8 c 1.41,0 2.47,1 2.47,1 0,0 12.56,5.7 14.84,5.7 2.28,1.2 0,4.6 0,4.6 0,0 -4.55,4.6 -5.69,5.7 -2.28,2.3 -5.72,1.1 -5.72,1.1 0,0 -11.42,-5.6 -14.84,-7.9 -3.42,-1.2 0,-3.5 0,-3.5 0,0 4.56,-3.4 6.84,-5.7 0.72,-0.7 1.45,-1 2.1,-1 z m -46.19,2.3 c 1.38,-0.1 3,1 3,1 0,0 12.56,6.9 14.84,8 1.15,1.1 0,3.4 0,3.4 0,0 -5.71,5.7 -8,6.9 -2.28,2.3 -4.56,1.1 -4.56,1.1 0,0 -13.7,-8 -14.84,-9.1 -2.29,-1.2 0,-3.4 0,-3.4 0,0 5.71,-4.6 8,-6.9 0.35,-0.7 0.93,-1 1.56,-1 z m 79.81,5.1 c 1,0 1.97,0.5 1.97,0.5 0,0 13.69,4.5 15.97,5.7 2.28,1.1 0,3.4 0,3.4 0,0 -3.44,3.5 -5.72,5.7 -2.28,2.3 -4.56,1.2 -4.56,1.2 0,0 -13.69,-5.7 -15.97,-6.9 -2.28,-1.1 0,-2.3 0,-2.3 0,0 4.56,-4.5 6.84,-6.8 0.29,-0.3 0.66,-0.5 1.03,-0.5 l 0.44,0 z m -49.34,7.5 c 1.75,-0.1 3.37,1 3.37,1 0,0 11.41,5.7 13.69,6.8 2.28,2.3 0,4.6 0,4.6 0,0 -4.58,4.6 -5.72,6.8 -2.28,1.2 -5.68,0 -5.68,0 -0.01,0 -13.72,-6.8 -16,-8 -2.29,-2.2 1.15,-3.4 1.15,-3.4 0,0 4.56,-4.6 6.85,-6.8 0.71,-0.8 1.54,-1 2.34,-1 z m -48.13,2.9 c 0.42,0 0.83,0.1 1.25,0.3 3.43,2.3 14.85,9.2 14.85,9.2 0,0 2.3,1.1 1.15,3.4 -2.28,2.3 -8,6.8 -8,6.8 0,0 -1.15,3.5 -5.72,1.2 -3.42,-1.1 -15.96,-9.1 -15.96,-9.1 0,0 -1.15,-1.2 0,-3.5 2.28,-1.1 9.12,-6.8 9.12,-6.8 0,0 1.52,-1.5 3.31,-1.5 z m 82.47,4.6 c 0.71,-0.1 1.41,0.1 2.13,0.3 7.99,3.5 17.11,5.7 15.97,8 -1.15,2.3 -6.84,11.4 -11.41,9.1 -1.14,0 -19.41,-5.7 -17.13,-9.1 1,-1 5.51,-8.1 10.44,-8.3 z m -52.62,8.4 c 1.75,0 3.37,1.1 3.37,1.1 0,0 11.42,5.7 14.85,6.8 2.28,1.1 0,4.6 0,4.6 0,0 -4.56,5.7 -6.85,6.8 -2.28,2.3 -5.72,1.2 -5.72,1.2 0,0 -13.68,-6.9 -15.97,-8 -2.28,-1.2 0,-4.6 0,-4.6 0.01,0 5.69,-4.6 7.97,-6.8 0.72,-0.8 1.55,-1 2.35,-1.1 z m -51,4.6 c 1.38,0 3,1 3,1 0,0 13.71,6.9 16,9.1 1.14,1.2 -1.16,3.5 -1.16,3.5 0,0 -6.84,6.8 -9.12,8 -2.29,2.2 -5.72,0 -5.72,0 0,0 -11.42,-6.9 -14.85,-9.2 -3.42,-2.3 0,-4.5 0,-4.5 0,0 8,-5.7 10.29,-6.9 0.35,-0.7 0.93,-0.9 1.56,-1 z m 87.9,3 c 1,0 1.85,0.3 1.85,0.3 0,0 13.71,5.7 16,6.8 1.14,1.2 1.12,4.6 1.12,4.6 0,0 -5.68,5.7 -7.97,6.9 -1.14,2.2 -5.72,0 -5.72,0 0.01,0 -13.68,-5.7 -15.96,-6.9 -2.29,-1.1 0,-2.3 0,-2.3 0,0 5.68,-5.7 7.96,-8 0.58,-1.1 1.72,-1.4 2.72,-1.4 z m -55.81,9.6 c 1.79,-0.1 2.88,1 2.88,1 0,0 13.68,6.8 15.97,8 2.28,1.1 0,4.5 0,4.5 0,0.1 -5.69,5.7 -7.97,8 -2.29,2.3 -5.72,1.2 -5.72,1.2 0,0 -13.69,-8 -15.97,-9.2 -3.43,-2.2 0,-4.5 0,-4.5 0,0 5.68,-4.6 7.97,-8 1.07,-0.7 2.03,-1 2.84,-1 z m -53.28,4.5 c 1.42,0 2.5,1 2.5,1 0,0 13.72,8 16,9.2 1.14,2.3 0,4.5 0,4.5 0,0 -9.15,8 -11.44,9.2 -2.28,2.2 -4.56,0 -4.56,0 0,0 -14.83,-9.1 -15.97,-10.3 -2.28,-1.1 0,-3.4 0,-3.4 0,0 9.12,-6.9 11.41,-9.2 0.71,-0.7 1.42,-1 2.06,-1 z m 90.22,4 c 0.24,-0.1 0.48,-0.1 0.72,0 1.56,0 2.9,0.5 2.9,0.5 0,0 12.53,5.7 14.82,6.8 3.42,1.2 2.28,3.4 2.28,3.4 0,0 -4.56,4.6 -6.85,8 -3.42,3.5 -7.96,1.2 -7.96,1.2 -0.01,0 -12.58,-5.7 -16,-6.9 -2.29,-1.1 0,-4.5 0,-4.5 0,0 5.71,-5.8 8,-8 0.64,-0.4 1.37,-0.5 2.09,-0.5 z m -56.85,10.9 c 1.76,-0.1 3.38,1 3.38,1 0,0 13.7,6.8 14.84,9.1 2.29,1.2 1.13,3.5 1.13,3.5 0,0 -9.11,7.9 -10.25,9.1 -2.28,2.3 -4.56,0 -4.56,0 0,0 -16,-8 -18.28,-9.1 -2.29,-2.3 1.15,-3.5 1.15,-3.5 0,0 6.83,-6.8 10.25,-9.1 0.71,-0.7 1.55,-1 2.34,-1 z m -56.81,5 c 1,0 1.97,0.6 1.97,0.6 0,0 13.72,9.1 16,10.2 3.43,2.3 0,4.6 0,4.6 0,0 -19.42,18.3 -22.84,21.7 -3.43,3.4 -6.85,0 -6.85,0 0,0 -14.85,-9.2 -16,-11.4 -2.28,-1.2 0,-3.5 0,-3.5 0,0 25.14,-20.5 26.29,-21.6 0.28,-0.3 0.62,-0.5 1,-0.5 0.14,-0.1 0.29,-0.1 0.43,-0.1 z m 95.88,2.6 c 1.14,0 2,0.2 2,0.2 0,0 11.39,5.7 14.81,6.9 4.57,2.3 2.28,4.5 2.28,4.5 0,0 -6.84,8 -9.12,10.3 -1.15,2.3 -5.69,0 -5.69,0 0,0 -13.7,-6.8 -17.13,-8 -3.42,-1.1 0,-4.5 0,-4.5 0,0 6.85,-5.8 9.13,-8 1.14,-1.2 2.58,-1.4 3.72,-1.4 z m 43.37,3.4 c 1.14,0 2,0.2 2,0.2 0,0 11.41,5.8 15.97,8 3.43,2.3 1.16,4.6 1.16,4.6 0,0 -13.72,17.1 -16,18.3 -2.29,2.3 -6.85,1.1 -6.85,1.1 0,0 -11.4,-4.5 -15.96,-6.8 -4.57,-1.2 0,-5.7 0,-5.7 -0.01,0 13.68,-16 15.96,-18.3 1.15,-1.1 2.58,-1.4 3.72,-1.4 z m -104.75,9.5 c 1.79,0 2.88,1 2.88,1 0,0 14.81,9.2 17.09,10.3 2.28,2.3 0,3.4 0,3.4 0,0 -27.37,25.1 -29.66,27.4 -3.42,2.3 -6.84,1.2 -6.84,1.2 0,0 -14.84,-9.2 -17.12,-11.5 -2.29,-2.2 1.12,-5.6 1.12,-5.6 0,0 26.26,-21.8 29.69,-25.2 1.07,-0.7 2.03,-0.9 2.84,-1 z m 40.85,8.3 c 1.24,0 1.96,0.7 1.96,0.7 0.01,0 13.71,6.9 17.13,9.2 3.42,2.2 1.13,3.4 1.13,3.4 0,0 -37.66,38.8 -39.94,41.1 -3.43,2.3 -8,0 -8,0 0,0 -11.42,-6.9 -14.85,-9.1 -4.56,-2.3 -1.12,-5.8 -1.12,-5.8 0,0 37.65,-34.2 39.94,-37.6 1.49,-1.5 2.78,-1.9 3.75,-1.9 z m 34.5,13.4 c 1.78,-0.1 2.84,1 2.84,1 0,0 13.7,5.7 17.12,8 3.43,1.2 1.16,4.6 1.16,4.6 0,0 -6.84,8 -9.12,11.4 -2.29,2.3 -6.88,-1.1 -6.88,-1.1 0,0 -13.67,-5.8 -17.09,-8 -3.43,-2.3 0,-3.4 0,-3.4 0,0 5.7,-8.1 9.12,-11.5 1.07,-0.7 2.03,-1 2.85,-1 z m -20.13,23.1 c 0.93,0 1.28,0.8 1.28,0.8 0,0 14.86,6.8 18.28,9.1 4.57,3.4 1.13,6.8 1.13,6.8 0,0 -19.41,19.4 -21.69,22.9 -2.28,3.4 -7.97,1.1 -7.97,1.1 0,0 -12.56,-8 -17.12,-10.3 -4.57,-2.2 0,-5.7 0,-5.7 0,0 20.53,-19.4 22.81,-22.8 1.5,-1.5 2.56,-1.9 3.28,-1.9 z" />
          <path
             inkscape:connector-curvature="0"
             id="path5329"
             style="fill:#5f4343"
             d="m 1000.5,1077.8 -2.31,2.2 c 0,0 12.61,6.9 12.61,6.9 0,0 -0.1,1.1 -1.2,2.3 -1.1,0 -2.3,2.2 -2.3,2.2 0,0 -1.1,1.2 -2.3,0 -1.1,-1.1 -13.66,-8 -13.66,-8 l -1.15,3.5 10.31,5.7 c 0,0 2.2,1.1 1.1,2.3 -1.1,1.1 -3.41,2.3 -3.41,2.3 0,0 -1.16,2.2 -3.44,0 -2.28,-1.2 -12.56,-5.8 -12.56,-5.8 0,0 -4.57,4.6 -4.57,4.6 0,0 11.44,6.8 11.44,6.8 l 1.13,2.3 4.56,2.3 c 0,0 2.3,0 3.44,-1.1 0,1.1 1.14,2.3 2.31,2.3 2.3,1.1 8,3.4 8,4.5 2.3,2.3 5.7,3.5 5.7,3.5 0,0 2.3,1.1 3.4,0 0,0 0,1.1 1.1,2.2 2.3,1.2 16,8 16,8 l 2.3,0 c 1.1,-1.1 4.6,-5.7 4.6,-5.7 l 0,-1.1 c 1.1,0 1.1,0 2.2,-1.2 1.2,0 2.3,-2.2 2.3,-2.2 0,1.1 -1.1,2.2 0,3.4 1.2,1.1 13.7,6.8 13.7,6.8 0,0 2.3,2.3 3.4,1.2 0,0 0.1,0 1.2,-1.2 2.3,-2.3 3.4,-1.1 3.4,-1.1 0,0 10.3,3.4 12.6,3.4 2.3,1.2 0,3.4 0,3.4 0,0 0,1.2 -2.3,2.3 -1.1,2.3 -2.3,1.2 -2.3,1.2 -1.1,0 -14.8,-4.6 -14.8,-4.6 0,0 -3.5,4.6 -3.5,5.7 1.2,0 12.6,4.6 13.7,4.6 l 0,4.5 4.6,1.2 c 0,0 1.2,1.1 2.3,0 0,-1.2 3.4,-5.7 3.4,-5.7 0,0 1.1,-1.2 0,-2.3 1.1,1.1 2.3,-1.2 3.4,-1.2 0,-1.1 3.5,-4.5 3.5,-4.5 l 0,-3.5 c 1.1,0 1.1,1.2 2.3,0 0,-1.1 3.4,-5.7 3.4,-5.7 l 0,-2.3 0,-6.8 c 0,0 -2.3,3.4 -2.3,3.4 0,0 -1.1,1.2 -3.4,0 -2.3,0 -13.7,-3.4 -13.7,-3.4 l -1.2,2.3 c 0,0 13.7,3.4 13.7,3.4 0,0 1.2,1.2 0,2.3 -1.1,1.1 -1.1,3.4 -1.1,3.4 0,0 -1.2,1.2 -3.4,0 -3.5,0 -12.6,-3.4 -12.6,-3.4 l -2.3,-1.2 0,-9.1 c 0,0 -2.3,4.6 -3.4,4.6 -2.3,0 -14.9,-3.4 -16,-4.6 -1.1,0 3.4,-4.5 3.4,-4.5 l 2.3,0 c 1.2,0 2.3,-2.3 2.3,-2.3 l 0,-6.9 -3.4,3.4 c 0,0 0,1.2 -2.3,0 -1.2,-1.1 -11.4,-4.5 -11.4,-4.5 l -1.2,-1.1 1.2,-1.2 -1.2,-5.7 -3.4,3.4 c 0,0 -1.1,1.2 -2.3,0 0,-1.1 -12.5,-6.8 -12.5,-6.8 l -1.2,-4.6 -3.4,2.3 c 0,0 -1.1,1.1 -3.4,0 -1.2,-1.1 -11.4,-6.8 -11.4,-6.8 z m 18.2,11.4 c 0,0 8,4.5 9.2,5.7 2.3,1.1 2.3,2.3 2.3,2.3 0,0 -2.3,1.1 -3.5,2.2 -1.1,2.3 -3.4,1.2 -3.4,1.2 0,0 -6.8,-4.6 -10.3,-5.7 -2.3,-1.2 -1.1,-2.3 -1.1,-2.3 0,0 2.3,-1.1 3.4,-2.3 1.2,-1.1 3.4,-1.1 3.4,-1.1 z m -10.9,6.3 0.4,0 c 0.9,0.1 1.4,0.5 1.4,0.5 0,0 9.1,4.6 10.3,5.7 2.3,1.2 1.1,2.3 1.1,2.3 l -3.4,3.4 c -1.1,1.1 -3.4,0 -3.4,0 0,0 -10.3,-4.5 -11.4,-5.7 -2.3,-2.3 0,-2.3 0,-2.3 0,0 1.1,-2.3 3.4,-3.4 0.6,-0.3 1.2,-0.5 1.6,-0.5 z m 28.8,3.9 0.4,0 c 0,0 8,3.5 10.3,4.6 1.1,1.1 1.1,3.4 1.1,3.4 0,0 -1.1,0 -2.3,1.2 -2.3,2.2 -4.5,1.1 -4.5,1.1 0,0 -9.2,-3.4 -11.4,-4.6 -2.3,-1.1 0,-2.3 0,-2.3 0,0 2.2,-1.1 3.4,-2.2 0.8,-0.9 2.3,-1.1 3,-1.2 z m -9.9,7.5 0.5,0 c 0.9,0.1 1.8,0.5 1.8,0.5 0,0 9.1,3.5 10.3,4.6 2.3,1.1 1.1,2.3 1.1,2.3 0,0 -2.3,1.1 -3.4,2.3 -1.1,2.2 -3.4,0 -3.4,0 0,0 -8,-3.5 -11.4,-4.6 -2.3,-1.1 0,-2.3 0,-2.3 0,0 2.3,-1.2 3.4,-2.3 0.3,-0.3 0.7,-0.5 1.1,-0.5 z" />
          <path
             inkscape:connector-curvature="0"
             id="path5341"
             style="fill:#5f4343"
             d="m 1032.4,1053.8 0,2.3 9.2,4.5 c 0,0 1.1,1.2 1.1,2.3 -1.1,0 -2.3,1.1 -2.3,1.1 l -2.3,0 c -2.3,-1.1 -11.4,-5.7 -11.4,-5.7 l -1.1,2.3 9.1,4.6 c 0,0 2.3,1.1 1.1,2.3 -1.1,1.1 -2.2,2.3 -2.2,2.3 0,0 -1.2,1.1 -3.4,0 -1.2,-1.2 -11.5,-5.8 -11.5,-5.8 l 0,2.3 9.2,4.6 c 0,0 2.2,1.1 1.1,2.3 l -2.3,2.3 -3.4,0 c -2.3,-1.2 -11.4,-6.9 -11.4,-6.9 l -3.4,6.9 c 0,0 7.9,4.5 10.2,5.7 1.2,1.1 4.6,3.4 4.6,3.4 l 1.1,-1.2 c 0,0 1.2,-1.1 2.3,0 1.2,1.2 11.4,5.8 11.4,5.8 0,0 1.2,1.1 0,2.2 2.3,1.2 3.5,1.2 3.5,1.2 0,0 1.1,1.1 2.2,-1.2 0,2.3 0.1,2.3 1.2,2.3 1.1,1.2 10.3,4.6 11.4,5.7 l 3.4,2.3 c 0,0 0.9,0.9 1.9,-0.4 -0.3,0.9 0.4,1.5 0.4,1.5 l 14.8,8 c 0,0 2.5,-0.8 3.3,-1.7 -0.6,1.7 1.3,1.7 1.3,1.7 l 10.3,3.5 c 0,0 2.3,0 2.3,1.1 l 0,3.4 2.2,1.2 c 0,0 1.2,1.1 2.3,-1.2 1.2,-1.1 8,-10.2 8,-10.2 0,0 1.2,-1.2 1.2,-2.3 0,1.1 1.1,0 2.3,-1.2 0,0 2.2,-3.4 2.2,-3.4 l 0,-2.3 c 1.2,1.2 2.3,0 2.3,0 1.2,-1.1 2.3,-2.3 2.3,-3.4 l 0,-8 -2.3,1.2 c 0,0 0,1.1 -2.3,0 -1.1,0 -29.6,-9.2 -29.6,-9.2 l 0,-1.1 0,-1.1 0,-4.6 -2.3,1.1 c 0,0 -1.2,1.2 -2.3,1.2 -1.1,-1.2 -27.4,-11.5 -27.4,-11.5 0,0 -1.2,-1.1 0,-1.1 0,-1.1 -1.1,0 -1.1,0 l -1.2,-5.7 -2.3,1.1 c 0,0 0,1.2 -2.3,0 -1.1,0 -11.4,-4.5 -11.4,-4.5 z m 14.5,10.9 c 0.2,-0.1 0.3,0 0.4,0 1.6,0.2 3.1,1 4.5,1.7 2.3,1.3 8.1,1.4 7.3,3.8 -0.4,1.3 -3.2,3.4 -4.9,2.7 -2.9,-1.3 -5.9,-3.2 -9.1,-4 -3.7,-0.9 -0.3,-4.1 1.8,-4.2 z m -6.7,4.5 0.3,0 c 2.2,0.2 4.5,1.7 6.7,2.8 1.8,0.8 7,1.8 4.5,4.8 -2.7,3.1 -5,1 -7.5,-0.3 -2.4,-1.3 -7.6,-1.1 -7.7,-3.4 -0.1,-1.4 2.1,-3.7 3.7,-3.9 z m 24.5,3.5 c 3.2,-0.2 5.8,2.9 8.9,3.2 4.7,0.6 1.7,5.7 -1.1,5.5 -3.1,-0.1 -5.9,-2.7 -9.1,-3 -4.9,-0.5 -2,-4.8 0.9,-5.7 l 0.4,0 z m -31.2,2.5 c 0.4,0 0.9,0.1 1.2,0.3 2.9,0.9 5.6,2.8 8.5,3.7 4.4,1.3 0.7,6.3 -1.7,5.9 -3.5,-0.6 -6.7,-3.3 -10.3,-4.5 -3.9,-1.4 -0.5,-4 1.2,-5.1 0.3,-0.2 0.7,-0.3 1.1,-0.3 z m 25,3.4 c 2.7,-0.1 5.4,2.4 8.2,2.9 2.5,0.5 5.1,1.5 2.8,4.2 -2.4,2.8 -5.4,2.2 -8.3,0.5 -2.3,-1.5 -7.2,-1.9 -7.4,-4.3 -0.1,-1.5 3,-3.2 4.7,-3.3 z m 22.6,1.4 c 1.6,-0.1 3.5,0.9 5.1,1.8 2.3,1.3 7.6,1.2 7.4,3.6 -0.1,1.4 -2.2,3.3 -4.1,3 -3.4,-0.6 -6.5,-2.4 -9.9,-3 -3.7,-0.7 -1.7,-4 0,-5 0.5,-0.2 1,-0.4 1.5,-0.4 z m -30.1,4.1 c 3.5,-0.2 6.6,2.7 10,3.4 4.5,0.9 2.5,6.4 -1,5.6 -3.6,-0.8 -6.8,-3.3 -10.5,-3.8 -4.4,-0.5 -1.4,-4.5 1.1,-5.2 l 0.4,0 z m 24.4,2.3 c 3.5,0.2 7.1,2.2 10.7,2.8 4.2,0.6 1.6,5.6 -1.2,5 -3.4,-0.7 -6.8,-2.6 -10.3,-2.7 -4.6,-0.1 -1.3,-5.3 0.8,-5.1 z m 26.2,1.5 c 0.2,0 0.3,0.1 0.5,0.1 3.4,1.2 8.7,1.9 10.4,4.4 1.5,2.3 -4.2,4.4 -6.9,3.2 -2.8,-1.3 -6.4,-0.6 -8.8,-2.3 -2.2,-1.7 2.4,-5.5 4.8,-5.4 z m -31.3,4.6 c 0.3,0 0.6,0 0.9,0.1 3.2,0.9 6.3,2.8 9.6,3.2 2.8,0.3 1.6,1.7 0.3,3.4 -1.7,2.1 -4.2,1.3 -6.7,0.6 -2.9,-0.9 -7.3,-1.3 -8.7,-3.1 -0.6,-0.9 2.2,-4 4.6,-4.2 z m 23.1,2 c 0,0 0.3,0.1 0.4,0.1 l 0.3,0.3 c 2.6,2.1 6.6,1.4 9.9,1.9 3.7,0.6 3,4.4 0.3,6.1 -2.5,1.5 -3.7,5.5 -6.5,6 -3.4,0.5 -7,-2.1 -10.6,-2.8 -4.2,-0.9 -2.2,-3.9 0.1,-5.6 2.3,-1.7 3.9,-4.4 6.1,-6 z" />
        </g>
      </g>
      <path
         inkscape:connector-curvature="0"
         id="path4215"
         d="m 387.89858,559.81382 0,376.84778"
         style="fill:none;fill-rule:evenodd;stroke:#ffffff;stroke-width:4.96066523;stroke-linecap:butt;stroke-linejoin:miter;stroke-miterlimit:4;stroke-dasharray:none;stroke-opacity:1" />
      <text
         sodipodi:linespacing="125%"
         id="text4217"
         y="634.06445"
         x="167.57959"
         style="font-style:normal;font-weight:normal;font-size:38.85971069px;line-height:125%;font-family:sans-serif;letter-spacing:0px;word-spacing:0px;fill:#00ffff;fill-opacity:1;stroke:none;stroke-width:1px;stroke-linecap:butt;stroke-linejoin:miter;stroke-opacity:1"
         xml:space="preserve"><tspan
           style="fill:#00ffff"
           y="634.06445"
           x="167.57959"
           id="tspan4219"
           sodipodi:role="line">Mouse</tspan></text>
      <text
         sodipodi:linespacing="125%"
         id="text4217-0"
         y="633.19452"
         x="569.85297"
         style="font-style:normal;font-weight:normal;font-size:38.85971069px;line-height:125%;font-family:sans-serif;letter-spacing:0px;word-spacing:0px;fill:#00ffff;fill-opacity:1;stroke:none;stroke-width:1px;stroke-linecap:butt;stroke-linejoin:miter;stroke-opacity:1"
         xml:space="preserve"><tspan
           style="fill:#00ffff"
           y="633.19452"
           x="569.85297"
           id="tspan4219-9"
           sodipodi:role="line">Keyboard</tspan></text>
      <text
         sodipodi:linespacing="125%"
         id="text5114"
         y="761.29376"
         x="36.035534"
         style="font-style:normal;font-weight:normal;font-size:20px;line-height:125%;font-family:sans-serif;letter-spacing:0px;word-spacing:0px;fill:#00ffff;fill-opacity:1;stroke:none;stroke-width:1px;stroke-linecap:butt;stroke-linejoin:miter;stroke-opacity:1"
         xml:space="preserve"><tspan
           y="761.29376"
           x="36.035534"
           id="tspan5116"
           sodipodi:role="line">Left drag:</tspan></text>
      <text
         sodipodi:linespacing="125%"
         id="text5120"
         y="762.12189"
         x="172.54164"
         style="font-style:normal;font-weight:normal;font-size:20px;line-height:125%;font-family:sans-serif;letter-spacing:0px;word-spacing:0px;fill:#000000;fill-opacity:1;stroke:none;stroke-width:1px;stroke-linecap:butt;stroke-linejoin:miter;stroke-opacity:1"
         xml:space="preserve"><tspan
           style="fill:#ffffff"
           y="762.12189"
           x="172.54164"
           id="tspan5122"
           sodipodi:role="line">Rotate</tspan></text>
      <text
         sodipodi:linespacing="125%"
         id="text5114-0"
         y="801.26349"
         x="35.781139"
         style="font-style:normal;font-weight:normal;font-size:20px;line-height:125%;font-family:sans-serif;letter-spacing:0px;word-spacing:0px;fill:#00ffff;fill-opacity:1;stroke:none;stroke-width:1px;stroke-linecap:butt;stroke-linejoin:miter;stroke-opacity:1"
         xml:space="preserve"><tspan
           y="801.26349"
           x="35.781139"
           id="tspan5116-9"
           sodipodi:role="line">Right drag:</tspan></text>
      <text
         sodipodi:linespacing="125%"
         id="text5120-3"
         y="802.09167"
         x="173.70146"
         style="font-style:normal;font-weight:normal;font-size:20px;line-height:125%;font-family:sans-serif;letter-spacing:0px;word-spacing:0px;fill:#000000;fill-opacity:1;stroke:none;stroke-width:1px;stroke-linecap:butt;stroke-linejoin:miter;stroke-opacity:1"
         xml:space="preserve"><tspan
           style="fill:#ffffff"
           y="802.09167"
           x="173.70146"
           id="tspan5122-8"
           sodipodi:role="line">Pan</tspan></text>
      <text
         sodipodi:linespacing="125%"
         id="text5114-0-5"
         y="840.81262"
         x="37.233803"
         style="font-style:normal;font-weight:normal;font-size:20px;line-height:125%;font-family:sans-serif;letter-spacing:0px;word-spacing:0px;fill:#00ffff;fill-opacity:1;stroke:none;stroke-width:1px;stroke-linecap:butt;stroke-linejoin:miter;stroke-opacity:1"
         xml:space="preserve"><tspan
           y="840.81262"
           x="37.233803"
           id="tspan5116-9-3"
           sodipodi:role="line">Click:</tspan></text>
      <text
         sodipodi:linespacing="125%"
         id="text5120-3-4"
         y="841.64075"
         x="172.32568"
         style="font-style:normal;font-weight:normal;font-size:20px;line-height:125%;font-family:sans-serif;letter-spacing:0px;word-spacing:0px;fill:#000000;fill-opacity:1;stroke:none;stroke-width:1px;stroke-linecap:butt;stroke-linejoin:miter;stroke-opacity:1"
         xml:space="preserve"><tspan
           style="fill:#ffffff"
           y="841.64075"
           x="172.32568"
           id="tspan5122-8-8"
           sodipodi:role="line">Get coordinates</tspan></text>
      <text
         sodipodi:linespacing="125%"
         id="text5114-0-5-4"
         y="883.67834"
         x="35.522377"
         style="font-style:normal;font-weight:normal;font-size:20px;line-height:125%;font-family:sans-serif;letter-spacing:0px;word-spacing:0px;fill:#00ffff;fill-opacity:1;stroke:none;stroke-width:1px;stroke-linecap:butt;stroke-linejoin:miter;stroke-opacity:1"
         xml:space="preserve"><tspan
           y="883.67834"
           x="35.522377"
           id="tspan5116-9-3-6"
           sodipodi:role="line">Double click:</tspan></text>
      <text
         sodipodi:linespacing="125%"
         id="text5120-3-4-0"
         y="883.09229"
         x="172.73558"
         style="font-style:normal;font-weight:normal;font-size:20px;line-height:125%;font-family:sans-serif;letter-spacing:0px;word-spacing:0px;fill:#000000;fill-opacity:1;stroke:none;stroke-width:1px;stroke-linecap:butt;stroke-linejoin:miter;stroke-opacity:1"
         xml:space="preserve"><tspan
           style="fill:#ffffff"
           y="883.09229"
           x="172.73558"
           id="tspan5122-8-8-9"
           sodipodi:role="line">Move to point</tspan></text>
      <text
         sodipodi:linespacing="125%"
         id="text5114-0-5-4-8"
         y="921.07709"
         x="37.768612"
         style="font-style:normal;font-weight:normal;font-size:20px;line-height:125%;font-family:sans-serif;letter-spacing:0px;word-spacing:0px;fill:#00ffff;fill-opacity:1;stroke:none;stroke-width:1px;stroke-linecap:butt;stroke-linejoin:miter;stroke-opacity:1"
         xml:space="preserve"><tspan
           y="921.07709"
           x="37.768612"
           id="tspan5116-9-3-6-1"
           sodipodi:role="line">Wheel:</tspan></text>
      <text
         sodipodi:linespacing="125%"
         id="text5120-3-4-0-9"
         y="921.90527"
         x="173.5676"
         style="font-style:normal;font-weight:normal;font-size:20px;line-height:125%;font-family:sans-serif;letter-spacing:0px;word-spacing:0px;fill:#000000;fill-opacity:1;stroke:none;stroke-width:1px;stroke-linecap:butt;stroke-linejoin:miter;stroke-opacity:1"
         xml:space="preserve"><tspan
           style="fill:#ffffff"
           y="921.90527"
           x="173.5676"
           id="tspan5122-8-8-9-1"
           sodipodi:role="line">Zoom</tspan></text>
      <text
         sodipodi:linespacing="125%"
         id="text5114-01"
         y="761.55151"
         x="441.33124"
         style="font-style:normal;font-weight:normal;font-size:20px;line-height:125%;font-family:sans-serif;letter-spacing:0px;word-spacing:0px;fill:#00ffff;fill-opacity:1;stroke:none;stroke-width:1px;stroke-linecap:butt;stroke-linejoin:miter;stroke-opacity:1"
         xml:space="preserve"><tspan
           y="761.55151"
           x="441.33124"
           id="tspan5116-3"
           sodipodi:role="line">← ↑ → ↓:</tspan></text>
      <text
         sodipodi:linespacing="125%"
         id="text5120-7"
         y="762.37964"
         x="577.83734"
         style="font-style:normal;font-weight:normal;font-size:20px;line-height:125%;font-family:sans-serif;letter-spacing:0px;word-spacing:0px;fill:#000000;fill-opacity:1;stroke:none;stroke-width:1px;stroke-linecap:butt;stroke-linejoin:miter;stroke-opacity:1"
         xml:space="preserve"><tspan
           style="fill:#ffffff"
           y="762.37964"
           x="577.83734"
           id="tspan5122-6"
           sodipodi:role="line">Move</tspan></text>
      <text
         sodipodi:linespacing="125%"
         id="text5114-0-7"
         y="801.52124"
         x="441.07684"
         style="font-style:normal;font-weight:normal;font-size:20px;line-height:125%;font-family:sans-serif;letter-spacing:0px;word-spacing:0px;fill:#00ffff;fill-opacity:1;stroke:none;stroke-width:1px;stroke-linecap:butt;stroke-linejoin:miter;stroke-opacity:1"
         xml:space="preserve"><tspan
           y="801.52124"
           x="441.07684"
           id="tspan5116-9-1"
           sodipodi:role="line">Q,W:</tspan></text>
      <text
         sodipodi:linespacing="125%"
         id="text5120-3-1"
         y="802.34943"
         x="578.99713"
         style="font-style:normal;font-weight:normal;font-size:20px;line-height:125%;font-family:sans-serif;letter-spacing:0px;word-spacing:0px;fill:#000000;fill-opacity:1;stroke:none;stroke-width:1px;stroke-linecap:butt;stroke-linejoin:miter;stroke-opacity:1"
         xml:space="preserve"><tspan
           style="fill:#ffffff"
           y="802.34943"
           x="578.99713"
           id="tspan5122-8-2"
           sodipodi:role="line">Rotate</tspan></text>
      <text
         sodipodi:linespacing="125%"
         id="text5114-0-5-41"
         y="841.07037"
         x="442.52948"
         style="font-style:normal;font-weight:normal;font-size:20px;line-height:125%;font-family:sans-serif;letter-spacing:0px;word-spacing:0px;fill:#00ffff;fill-opacity:1;stroke:none;stroke-width:1px;stroke-linecap:butt;stroke-linejoin:miter;stroke-opacity:1"
         xml:space="preserve"><tspan
           y="841.07037"
           x="442.52948"
           id="tspan5116-9-3-8"
           sodipodi:role="line">A, Z:</tspan></text>
      <text
         sodipodi:linespacing="125%"
         id="text5120-3-4-2"
         y="841.8985"
         x="577.6214"
         style="font-style:normal;font-weight:normal;font-size:20px;line-height:125%;font-family:sans-serif;letter-spacing:0px;word-spacing:0px;fill:#000000;fill-opacity:1;stroke:none;stroke-width:1px;stroke-linecap:butt;stroke-linejoin:miter;stroke-opacity:1"
         xml:space="preserve"><tspan
           style="fill:#ffffff"
           y="841.8985"
           x="577.6214"
           id="tspan5122-8-8-4"
           sodipodi:role="line">Camera altitude</tspan></text>
      <text
         sodipodi:linespacing="125%"
         id="text5114-0-5-41-8"
         y="882.46356"
         x="441.45303"
         style="font-style:normal;font-weight:normal;font-size:20px;line-height:125%;font-family:sans-serif;letter-spacing:0px;word-spacing:0px;fill:#00ffff;fill-opacity:1;stroke:none;stroke-width:1px;stroke-linecap:butt;stroke-linejoin:miter;stroke-opacity:1"
         xml:space="preserve"><tspan
           y="882.46356"
           x="441.45303"
           id="tspan5116-9-3-8-9"
           sodipodi:role="line">+, -:</tspan></text>
      <text
         sodipodi:linespacing="125%"
         id="text5120-3-4-2-6"
         y="882.80847"
         x="577.75098"
         style="font-style:normal;font-weight:normal;font-size:20px;line-height:125%;font-family:sans-serif;letter-spacing:0px;word-spacing:0px;fill:#000000;fill-opacity:1;stroke:none;stroke-width:1px;stroke-linecap:butt;stroke-linejoin:miter;stroke-opacity:1"
         xml:space="preserve"><tspan
           style="fill:#ffffff"
           y="882.80847"
           x="577.75098"
           id="tspan5122-8-8-4-9"
           sodipodi:role="line">Camera altitude</tspan></text>
    </g>
  </g>
</svg>
