<?xml version="1.0" encoding="UTF-8" standalone="no"?>
<!-- Generator: Adobe Illustrator 16.0.0, SVG Export Plug-In . SVG Version: 6.00 Build 0)  -->

<svg
   xmlns:dc="http://purl.org/dc/elements/1.1/"
   xmlns:cc="http://creativecommons.org/ns#"
   xmlns:rdf="http://www.w3.org/1999/02/22-rdf-syntax-ns#"
   xmlns:svg="http://www.w3.org/2000/svg"
   xmlns="http://www.w3.org/2000/svg"
   xmlns:sodipodi="http://sodipodi.sourceforge.net/DTD/sodipodi-0.dtd"
   xmlns:inkscape="http://www.inkscape.org/namespaces/inkscape"
   id="Layer_1"
   enable-background="new 0 0 56.69 56.69"
   xml:space="preserve"
   viewBox="0 0 42.000001 42.000001"
   version="1.1"
   y="0px"
   x="0px"
   inkscape:version="0.91 r13725"
   sodipodi:docname="reflector.svg"
   width="42"
   height="42"><defs
     id="defs13" /><sodipodi:namedview
     pagecolor="#ffffff"
     bordercolor="#666666"
     borderopacity="1"
     objecttolerance="10"
     gridtolerance="10"
     guidetolerance="10"
     inkscape:pageopacity="0"
     inkscape:pageshadow="2"
     inkscape:window-width="1251"
     inkscape:window-height="677"
     id="namedview11"
     showgrid="false"
     inkscape:zoom="4.1629918"
     inkscape:cx="-19.841363"
     inkscape:cy="28.344999"
     inkscape:window-x="283"
     inkscape:window-y="87"
     inkscape:window-maximized="0"
     inkscape:current-layer="Layer_1" /><g
     id="g4141"
     transform="matrix(0.77028441,0,0,0.73363853,-0.61462778,11.347523)"
     style="fill:#006d6d;fill-opacity:1"><line
       style="fill:#006d6d;fill-opacity:1;stroke:#000000;stroke-width:2.12599993;stroke-miterlimit:10"
       id="line3"
       y1="16.581001"
       stroke-miterlimit="10"
       x2="28.753"
       x1="53.146"
       y2="40.974003" /><path
       inkscape:connector-curvature="0"
       id="path5"
       d="m 47.747,18.596001 -21.329,-21.3279996 0,6.202 c 0,3.954 -3.216,7.1699996 -7.17,7.1699996 -3.954,0 -7.17,-3.2159996 -7.17,-7.1699996 l 0,-14.1820004 c -2.321,0.33 -4.561,1.3750004 -6.347,3.1620004 -4.379,4.38 -4.379,11.484 0.002,15.865 L 31.88,34.461001 c 0.007,0.008 0.017,0.015 0.023,0.02 l 15.863,-15.863 c -0.007,-0.004 -0.012,-0.015 -0.019,-0.022 z"
       style="fill:#006d6d;fill-opacity:1" /><path
       inkscape:connector-curvature="0"
       id="path7"
       d="m 14.925,-14.689999 c -0.001,0.044 -0.013,0.086 -0.013,0.131 l 0,18.0290004 c 0,2.395 1.941,4.335 4.335,4.335 2.395,0 4.336,-1.941 4.336,-4.335 l 0,-18.0290004 c 0,-0.045 -0.012,-0.086 -0.013,-0.131 l -8.645,0 z"
       style="fill:#006d6d;fill-opacity:1" /></g><metadata
     id="metadata9"><rdf:RDF><cc:Work><dc:format>image/svg+xml</dc:format><dc:type
           rdf:resource="http://purl.org/dc/dcmitype/StillImage" /><cc:license
           rdf:resource="http://creativecommons.org/publicdomain/zero/1.0/" /><dc:publisher><cc:Agent
             rdf:about="http://openclipart.org/"><dc:title>Openclipart</dc:title></cc:Agent></dc:publisher><dc:title /></cc:Work><cc:License
         rdf:about="http://creativecommons.org/publicdomain/zero/1.0/"><cc:permits
           rdf:resource="http://creativecommons.org/ns#Reproduction" /><cc:permits
           rdf:resource="http://creativecommons.org/ns#Distribution" /><cc:permits
           rdf:resource="http://creativecommons.org/ns#DerivativeWorks" /></cc:License></rdf:RDF></metadata></svg>